<?xml version="1.0" standalone="no"?>
<!DOCTYPE svg PUBLIC "-//W3C//DTD SVG 1.1//EN" "http://www.w3.org/Graphics/SVG/1.1/DTD/svg11.dtd">
<!--Generator: Xara Designer (www.xara.com), SVG filter version: 6.3.0.9-->
<svg stroke-width="0.501" stroke-linejoin="bevel" fill-rule="evenodd" xmlns:xlink="http://www.w3.org/1999/xlink" xmlns="http://www.w3.org/2000/svg" version="1.1" overflow="visible" width="432pt" height="144pt" viewBox="0 0 432 144">
 <defs>
	</defs>
 <g id="Document" fill="none" stroke="black" font-family="Times New Roman" font-size="16" transform="scale(1 -1)">
  <g id="Spread" transform="translate(0 -144)">
   <g id="Page background" style="font-variant-ligatures:none">
    <path d="M 0,143.999 L 0,0 L 431.999,0 L 431.999,143.999 L 0,143.999 Z" stroke="none" stroke-width="0" marker-start="none" marker-end="none" stroke-miterlimit="79.8403193612775"/>
   </g>
   <g id="Layer 1" style="font-variant-ligatures:none">
    <path d="M 411.01,9.269 L 400.915,22.353 C 400.442,22.972 398.857,23.926 398.152,23.926 L 388.233,23.926 C 386.392,23.926 384.271,23.265 384.271,21.073 L 398.397,21.073 C 399.364,21.073 400.385,20.537 400.973,19.773 L 402.528,17.775 L 384.048,17.775 L 384.039,13.886 C 384.039,12.09 383.229,11.349 381.898,11.349 L 380.462,11.349 L 380.474,19.424 C 380.478,25.446 384.928,27.471 387.346,27.471 L 398.461,27.471 C 400.442,27.471 402.15,26.47 403.228,25.064 L 413.696,11.349 C 414.262,10.566 414.109,9.614 413.554,9.13 C 413.229,8.849 412.799,8.7 412.326,8.72 C 411.868,8.724 411.396,8.894 411.01,9.269 Z M 244.849,11.333 L 244.83,16.644 C 244.83,17.258 244.956,17.846 245.195,18.396 C 245.421,18.949 245.731,19.435 246.135,19.845 C 246.538,20.247 247.006,20.56 247.551,20.808 C 248.097,21.04 248.693,21.147 249.353,21.147 L 269.094,21.147 C 269.467,21.147 269.796,21.273 270.089,21.539 C 270.373,21.796 270.526,22.121 270.526,22.514 C 270.526,22.898 270.373,23.198 270.089,23.473 C 269.796,23.745 269.467,23.882 269.094,23.882 L 246.623,23.882 C 246.133,23.882 245.702,24.051 245.362,24.403 C 245.006,24.746 244.83,25.166 244.83,25.646 L 244.849,27.421 L 268.939,27.421 C 269.643,27.421 270.305,27.28 270.914,27.031 C 272.718,26.316 274.017,24.465 273.988,22.514 C 274.014,20.573 272.718,18.692 270.914,17.987 C 270.305,17.742 269.643,17.604 268.939,17.604 L 249.565,17.604 C 249.248,17.559 248.972,17.411 248.753,17.151 C 248.514,16.923 248.418,16.61 248.418,16.242 L 248.418,13.112 C 248.418,12.612 248.233,12.185 247.874,11.848 C 247.513,11.504 247.086,11.343 246.623,11.343 L 244.849,11.333 Z M 349.238,11.345 L 349.226,16.659 C 349.226,17.269 349.352,17.853 349.587,18.408 C 349.821,18.966 350.126,19.45 350.53,19.859 C 350.925,20.259 351.409,20.576 351.955,20.824 C 352.491,21.047 353.092,21.161 353.746,21.161 L 373.494,21.161 C 373.863,21.161 374.192,21.286 374.485,21.551 C 374.761,21.808 374.918,22.135 374.918,22.531 C 374.918,22.908 374.761,23.212 374.485,23.483 C 374.192,23.757 373.863,23.895 373.494,23.895 L 351.011,23.895 C 350.518,23.895 350.093,24.064 349.743,24.416 C 349.398,24.759 349.226,25.176 349.226,25.66 L 349.238,27.432 L 373.343,27.432 C 374.034,27.432 374.703,27.295 375.306,27.039 C 375.906,26.784 376.438,26.443 376.897,25.99 C 379.472,23.741 378.487,19.133 375.306,18.001 C 374.703,17.752 374.034,17.618 373.343,17.618 L 373.201,17.618 C 373.863,17.204 374.557,16.751 375.253,16.268 C 375.934,15.783 376.646,15.266 377.37,14.706 C 377.642,14.505 377.877,14.281 378.07,14.024 C 378.273,13.766 378.375,13.457 378.375,13.126 C 378.375,12.628 378.212,12.195 377.853,11.851 C 377.513,11.515 377.089,11.345 376.585,11.345 C 376.163,11.345 375.74,11.515 375.319,11.861 C 371.201,14.852 366.65,17.655 361.372,17.618 L 353.974,17.618 C 353.638,17.571 353.373,17.423 353.145,17.17 C 352.917,16.932 352.81,16.623 352.81,16.256 L 352.81,13.126 C 352.81,12.628 352.626,12.195 352.273,11.861 C 351.903,11.515 351.495,11.353 351.011,11.353 L 349.238,11.345 Z M 277.256,11.349 L 277.256,25.582 C 277.256,26.608 278.051,27.432 279.037,27.432 L 280.817,27.432 L 280.817,13.202 C 280.817,12.185 280.029,11.349 279.037,11.349 L 277.256,11.349 Z M 287.418,12.185 C 286.624,12.675 285.945,13.303 285.379,14.083 C 284.713,14.969 284.378,15.763 284.123,16.569 C 283.799,17.506 283.642,18.447 283.642,19.377 L 283.642,19.384 C 283.642,20.323 283.799,21.264 284.123,22.216 C 284.628,23.557 284.571,23.397 285.379,24.686 C 285.945,25.472 286.624,26.097 287.418,26.6 C 288.21,27.108 289.121,27.382 290.136,27.422 L 313.866,27.432 L 313.866,25.446 C 313.866,24.703 312.994,23.895 312.25,23.895 L 307.583,23.895 L 307.583,23.888 L 291.276,23.888 C 290.434,23.888 289.745,23.735 289.206,23.44 C 288.657,23.115 288.221,22.744 287.917,22.299 C 287.618,21.86 287.395,21.375 287.282,20.831 C 287.251,20.685 287.214,20.532 287.193,20.363 C 287.003,19.052 287.15,17.571 287.917,16.464 C 288.221,16.033 288.657,15.671 289.206,15.342 C 289.745,15.032 290.434,14.883 291.276,14.883 L 307.583,14.883 L 307.583,14.873 L 312.25,14.873 C 312.994,14.868 313.866,14.08 313.866,13.327 L 313.866,11.349 L 290.136,11.349 C 289.121,11.391 288.21,11.667 287.418,12.185 Z M 340.683,11.349 L 316.795,11.353 L 316.788,20.524 C 316.788,21.019 316.96,21.444 317.306,21.791 C 317.666,22.127 318.073,22.299 318.581,22.299 C 319.066,22.299 319.487,22.127 319.839,21.791 C 320.204,21.444 320.37,21.019 320.37,20.524 L 320.37,14.883 L 339.526,14.883 C 344.067,14.518 345.194,21.429 341.606,23.44 C 341.065,23.741 340.375,23.895 339.526,23.895 L 318.572,23.895 C 317.815,23.895 316.948,24.703 316.948,25.446 L 316.948,27.432 L 340.307,27.432 C 341.381,27.432 342.332,27.192 343.18,26.696 C 348.387,23.718 348.473,15.32 343.394,12.185 C 342.603,11.667 341.696,11.391 340.683,11.349 Z M 289.824,19.384 C 289.824,20.371 290.657,21.172 291.67,21.172 L 313.31,21.172 L 313.31,19.377 C 313.31,18.402 312.474,17.604 311.457,17.604 L 291.729,17.604 C 290.893,17.604 289.824,18.136 289.824,19.384 Z M 354.308,29.742 L 353.801,29.787 L 352.811,30.187 L 352.372,30.558 L 337.549,49.769 L 337.239,50.126 L 336.243,50.903 L 335.046,51.599 L 333.923,52.034 L 333.496,52.079 L 318.929,52.079 L 317.902,52.049 L 316.38,51.762 L 315.437,51.422 L 314.599,50.938 L 313.908,50.294 L 313.409,49.481 L 313.136,48.477 L 313.113,47.89 L 333.85,47.89 L 334.382,47.865 L 335.445,47.589 L 336.437,47.085 L 337.289,46.392 L 337.631,45.986 L 339.919,43.045 L 312.788,43.045 L 312.77,37.332 L 312.762,36.851 L 312.653,36.008 L 312.441,35.301 L 312.13,34.724 L 311.724,34.274 L 311.228,33.943 L 310.649,33.728 L 309.985,33.624 L 309.623,33.616 L 307.523,33.616 L 307.535,45.463 L 307.549,46.28 L 307.696,47.803 L 307.975,49.196 L 308.373,50.461 L 308.875,51.603 L 309.467,52.626 L 310.486,53.964 L 312.045,55.351 L 313.715,56.339 L 315.384,56.965 L 316.938,57.262 L 317.626,57.284 L 333.942,57.284 L 334.485,57.274 L 335.539,57.141 L 336.541,56.885 L 337.491,56.519 L 338.812,55.791 L 340.316,54.505 L 340.937,53.749 L 356.309,33.616 L 356.589,33.174 L 356.838,32.26 L 356.757,31.387 L 356.391,30.638 L 356.104,30.348 L 355.729,30.067 L 354.816,29.757 L 354.308,29.742 Z M 20.476,29.744 L 19.966,29.757 L 19.058,30.069 L 18.681,30.353 L 18.395,30.641 L 18.028,31.387 L 17.947,32.261 L 18.197,33.174 L 18.479,33.616 L 33.843,53.754 L 34.465,54.51 L 35.972,55.794 L 37.292,56.519 L 38.243,56.885 L 39.246,57.141 L 40.297,57.274 L 40.842,57.284 L 57.161,57.284 L 57.849,57.262 L 59.405,56.965 L 61.07,56.339 L 62.741,55.351 L 64.299,53.964 L 65.318,52.626 L 65.91,51.603 L 66.413,50.461 L 66.81,49.196 L 67.09,47.803 L 67.237,46.28 L 67.252,45.463 L 67.265,33.616 L 65.161,33.616 L 64.797,33.624 L 64.136,33.728 L 63.555,33.943 L 63.058,34.274 L 62.653,34.724 L 62.342,35.301 L 62.13,36.008 L 62.022,36.851 L 62.013,37.332 L 61.998,43.045 L 34.868,43.045 L 37.154,45.986 L 37.496,46.392 L 38.347,47.085 L 39.34,47.589 L 40.4,47.865 L 40.932,47.89 L 61.672,47.89 L 61.648,48.477 L 61.375,49.481 L 60.876,50.294 L 60.186,50.938 L 59.349,51.422 L 58.407,51.762 L 56.884,52.049 L 55.857,52.079 L 41.289,52.079 L 40.863,52.034 L 39.739,51.599 L 38.541,50.905 L 37.547,50.127 L 37.239,49.769 L 22.416,30.558 L 21.974,30.187 L 20.986,29.789 L 20.476,29.744 Z M 108.411,33.607 L 70.406,33.616 L 70.406,36.033 L 70.419,36.284 L 70.55,36.789 L 70.943,37.515 L 71.766,38.318 L 72.508,38.701 L 73.019,38.829 L 73.273,38.841 L 108.633,38.809 L 109.035,38.834 L 109.74,39.118 L 110.05,39.379 L 110.325,39.675 L 110.629,40.366 L 110.655,40.76 L 110.629,41.188 L 110.325,41.943 L 110.05,42.26 L 109.74,42.532 L 109.032,42.827 L 108.625,42.852 L 78.208,42.852 L 77.459,42.877 L 76.03,43.165 L 75.36,43.425 L 74.716,43.728 L 73.57,44.492 L 73.068,44.964 L 72.585,45.475 L 71.81,46.615 L 71.514,47.262 L 71.245,47.918 L 70.949,49.323 L 70.924,50.074 L 70.949,50.822 L 71.245,52.229 L 71.514,52.89 L 71.81,53.528 L 72.585,54.668 L 73.068,55.164 L 73.57,55.638 L 74.716,56.409 L 75.36,56.71 L 76.03,56.974 L 77.459,57.259 L 78.208,57.284 L 116.264,57.284 L 116.264,54.223 L 116.25,53.995 L 116.097,53.57 L 115.65,53.003 L 114.751,52.432 L 113.729,52.119 L 113.248,52.09 L 78.103,52.081 L 77.699,52.055 L 76.971,51.765 L 76.649,51.504 L 76.36,51.207 L 76.042,50.488 L 76.016,50.074 L 76.042,49.674 L 76.36,48.968 L 76.649,48.661 L 76.975,48.39 L 77.699,48.082 L 78.103,48.056 L 108.411,48.056 L 109.164,48.034 L 110.607,47.756 L 111.291,47.493 L 111.94,47.192 L 113.103,46.419 L 113.606,45.941 L 114.09,45.441 L 114.872,44.287 L 115.176,43.639 L 115.437,42.963 L 115.726,41.523 L 115.752,40.763 L 115.726,40.019 L 115.437,38.605 L 115.176,37.944 L 114.872,37.304 L 114.09,36.168 L 113.606,35.677 L 113.103,35.197 L 111.94,34.433 L 111.291,34.149 L 110.607,33.899 L 109.164,33.629 L 108.411,33.607 Z M 154.434,33.607 L 119.326,33.616 L 119.313,47.272 L 119.347,47.803 L 119.728,48.726 L 120.083,49.123 L 120.481,49.469 L 121.415,49.84 L 121.949,49.87 L 122.48,49.84 L 123.403,49.469 L 123.8,49.123 L 124.159,48.726 L 124.555,47.803 L 124.588,47.272 L 124.577,38.809 L 152.744,38.809 L 153.65,38.838 L 155.177,39.177 L 155.802,39.483 L 156.392,39.842 L 157.339,40.67 L 157.699,41.145 L 158.021,41.64 L 158.487,42.716 L 158.635,43.302 L 158.755,43.875 L 158.874,44.958 L 158.88,45.459 L 158.871,45.956 L 158.754,47.025 L 158.635,47.597 L 158.487,48.178 L 158.021,49.25 L 157.699,49.753 L 157.339,50.225 L 156.392,51.042 L 155.802,51.397 L 155.177,51.715 L 153.65,52.06 L 152.744,52.09 L 121.935,52.081 L 121.511,52.119 L 120.685,52.506 L 119.998,53.153 L 119.587,53.943 L 119.548,54.351 L 119.548,57.284 L 153.902,57.284 L 154.485,57.274 L 155.595,57.138 L 156.647,56.868 L 157.638,56.46 L 158.111,56.199 L 159.016,55.632 L 160.611,54.24 L 161.301,53.412 L 161.923,52.549 L 162.923,50.646 L 163.296,49.612 L 163.607,48.568 L 163.953,46.493 L 163.983,45.459 L 163.953,44.446 L 163.616,42.39 L 163.314,41.363 L 162.966,40.354 L 162.021,38.482 L 161.43,37.624 L 160.79,36.799 L 159.295,35.403 L 158.434,34.823 L 157.993,34.554 L 157.054,34.124 L 156.053,33.821 L 154.99,33.643 L 154.434,33.607 Z M 166.117,33.607 L 166.106,41.423 L 166.127,42.089 L 166.386,43.398 L 166.628,44.021 L 166.899,44.616 L 167.586,45.679 L 168.011,46.146 L 168.463,46.571 L 169.506,47.276 L 170.096,47.559 L 170.708,47.787 L 172.027,48.038 L 172.736,48.056 L 201.769,48.056 L 202.171,48.081 L 202.901,48.37 L 203.233,48.641 L 203.519,48.938 L 203.839,49.651 L 203.866,50.074 L 203.839,50.478 L 203.519,51.178 L 203.233,51.487 L 202.901,51.755 L 202.171,52.059 L 201.769,52.09 L 168.73,52.081 L 168.193,52.118 L 167.255,52.491 L 166.857,52.835 L 166.51,53.234 L 166.137,54.154 L 166.106,54.672 L 166.113,57.284 L 201.557,57.284 L 202.314,57.259 L 203.759,56.974 L 204.434,56.71 L 205.094,56.413 L 206.263,55.641 L 206.785,55.164 L 207.274,54.666 L 208.062,53.528 L 208.373,52.89 L 208.644,52.229 L 208.936,50.822 L 208.959,50.074 L 208.936,49.323 L 208.644,47.918 L 208.373,47.262 L 208.062,46.619 L 207.274,45.476 L 206.785,44.964 L 206.263,44.489 L 205.094,43.706 L 204.434,43.398 L 203.753,43.135 L 202.312,42.848 L 201.557,42.824 L 201.345,42.824 L 202.825,41.881 L 204.348,40.853 L 205.895,39.756 L 207.482,38.537 L 208.049,38.085 L 208.503,37.538 L 208.71,37.245 L 208.938,36.579 L 208.959,36.209 L 208.927,35.682 L 208.54,34.757 L 208.188,34.365 L 207.789,34.019 L 206.859,33.639 L 206.319,33.607 L 205.858,33.639 L 204.919,34.02 L 204.451,34.368 L 202.2,35.973 L 199.859,37.512 L 198.678,38.258 L 196.226,39.618 L 194.957,40.22 L 193.665,40.8 L 191.023,41.746 L 189.661,42.114 L 188.287,42.439 L 185.437,42.794 L 183.96,42.824 L 173.061,42.824 L 172.717,42.753 L 172.112,42.431 L 171.855,42.173 L 171.624,41.896 L 171.383,41.22 L 171.364,40.827 L 171.364,36.209 L 171.331,35.682 L 170.933,34.758 L 170.571,34.368 L 170.16,34.021 L 169.237,33.646 L 168.73,33.616 L 166.117,33.607 Z M 246.408,33.607 L 221.428,33.616 L 220.872,33.648 L 219.808,33.822 L 218.807,34.124 L 217.871,34.554 L 217.431,34.823 L 216.572,35.403 L 215.08,36.799 L 214.442,37.624 L 213.85,38.477 L 212.899,40.352 L 212.548,41.363 L 212.243,42.388 L 211.915,44.424 L 211.888,45.436 L 211.888,55.149 L 211.921,55.679 L 212.31,56.602 L 212.65,56.992 L 213.054,57.348 L 213.992,57.723 L 214.522,57.752 L 215.057,57.723 L 215.992,57.348 L 216.383,56.992 L 216.737,56.602 L 217.115,55.679 L 217.146,55.149 L 217.146,45.436 L 217.191,44.427 L 217.391,43.302 L 217.54,42.716 L 218.01,41.64 L 218.326,41.145 L 218.695,40.67 L 219.624,39.842 L 220.188,39.483 L 220.809,39.177 L 222.358,38.838 L 223.287,38.809 L 245.105,38.809 L 246.005,38.838 L 247.537,39.177 L 248.177,39.483 L 248.75,39.842 L 249.693,40.67 L 250.062,41.145 L 250.389,41.64 L 250.848,42.716 L 250.992,43.302 L 251.197,44.427 L 251.239,45.436 L 251.312,54.678 L 251.343,55.209 L 251.726,56.13 L 252.074,56.523 L 252.471,56.879 L 253.404,57.253 L 253.935,57.284 L 256.538,57.284 L 256.499,45.436 L 256.473,44.408 L 256.131,42.329 L 255.813,41.275 L 255.444,40.249 L 254.452,38.353 L 253.828,37.486 L 253.138,36.649 L 251.543,35.256 L 250.635,34.691 L 250.166,34.428 L 249.173,34.02 L 248.115,33.751 L 246.993,33.617 L 246.408,33.607 Z M 267.768,33.607 L 267.166,33.632 L 265.964,33.883 L 265.361,34.119 L 264.772,34.389 L 263.699,35.107 L 263.225,35.558 L 262.778,36.037 L 262.01,37.145 L 261.694,37.78 L 261.412,38.444 L 261.114,39.916 L 261.09,40.717 L 261.09,47.607 L 261.127,48.137 L 261.527,49.071 L 262.24,49.784 L 263.18,50.185 L 263.713,50.221 L 264.25,50.185 L 265.198,49.784 L 265.913,49.071 L 266.315,48.137 L 266.351,47.607 L 266.346,47.533 L 266.346,40.601 L 266.351,40.601 L 266.351,40.178 L 266.371,39.906 L 266.603,39.426 L 266.814,39.221 L 267.061,39.034 L 267.682,38.825 L 268.055,38.809 L 296.768,38.809 L 297.167,38.835 L 297.888,39.142 L 298.209,39.418 L 298.499,39.721 L 298.823,40.423 L 298.85,40.827 L 298.823,41.246 L 298.499,41.964 L 298.209,42.259 L 297.888,42.521 L 297.167,42.801 L 296.768,42.824 L 271.621,42.824 L 271.117,42.868 L 270.116,43.322 L 269.279,44.089 L 268.875,44.786 L 268.74,45.271 L 268.727,45.516 L 268.727,48.032 L 296.82,48.032 L 297.221,48.055 L 297.931,48.331 L 298.236,48.582 L 298.513,48.863 L 298.824,49.591 L 298.85,50.024 L 298.823,50.426 L 298.499,51.134 L 298.209,51.448 L 297.888,51.74 L 297.167,52.062 L 296.768,52.09 L 263.839,52.09 L 263.369,52.131 L 262.455,52.565 L 261.7,53.298 L 261.252,54.192 L 261.207,54.655 L 261.207,57.284 L 296.544,57.284 L 297.304,57.259 L 298.747,56.974 L 299.425,56.71 L 300.073,56.409 L 301.253,55.641 L 301.777,55.164 L 302.263,54.666 L 303.056,53.509 L 303.361,52.86 L 303.628,52.191 L 303.925,50.773 L 303.951,50.024 L 303.932,49.335 L 303.694,48.06 L 303.477,47.473 L 303.228,46.896 L 302.607,45.851 L 302.234,45.39 L 302.607,44.91 L 303.228,43.87 L 303.477,43.302 L 303.694,42.703 L 303.933,41.469 L 303.954,40.827 L 303.928,40.073 L 303.628,38.661 L 303.361,37.997 L 303.056,37.37 L 302.263,36.233 L 301.777,35.722 L 301.261,35.252 L 300.077,34.478 L 299.425,34.179 L 298.747,33.917 L 297.304,33.638 L 296.544,33.616 L 267.768,33.607 Z M 364.39,33.642 L 363.288,33.767 L 362.511,33.987 L 361.788,34.325 L 361.073,34.719 L 359.892,35.698 L 359.417,36.265 L 345.953,53.876 L 345.708,54.179 L 345.449,54.936 L 345.426,55.389 L 345.458,55.896 L 345.819,56.773 L 346.15,57.147 L 346.531,57.481 L 347.416,57.841 L 347.928,57.871 L 348.212,57.86 L 348.741,57.744 L 349.226,57.511 L 349.666,57.164 L 349.865,56.944 L 362.93,40.116 L 363.187,39.795 L 363.7,39.311 L 364.258,39.002 L 364.902,38.854 L 365.276,38.841 L 396.411,38.841 L 396.419,36.497 L 396.406,36.244 L 396.273,35.736 L 395.88,34.998 L 395.053,34.178 L 394.307,33.785 L 393.791,33.655 L 393.532,33.642 L 364.39,33.642 Z M 228.565,50.319 L 227.813,50.501 L 227.191,50.96 L 226.966,51.298 L 225.98,53.008 L 239.663,60.875 L 240.04,61.059 L 240.828,61.169 L 241.582,60.985 L 242.205,60.526 L 242.43,60.191 L 243.413,58.475 L 229.726,50.61 L 229.35,50.426 L 228.565,50.319 Z M 204.149,61.883 L 177.247,77.421 C 175.568,78.389 174.203,80.75 174.203,82.686 L 174.208,113.755 C 174.208,115.69 175.572,118.05 177.248,119.02 L 204.15,134.553 C 205.828,135.523 208.558,135.523 210.237,134.553 L 237.139,119.018 C 238.819,118.047 240.182,115.689 240.182,113.745 L 240.182,82.686 C 240.182,80.746 238.81,78.38 237.137,77.414 L 210.23,61.883 C 208.555,60.916 205.823,60.916 204.149,61.883 Z M 210.052,64.026 L 235.371,78.641 C 236.946,79.551 238.235,81.775 238.235,83.6 L 238.235,112.83 C 238.235,114.661 236.954,116.878 235.373,117.79 L 210.056,132.41 C 208.477,133.323 205.909,133.323 204.331,132.41 L 179.014,117.793 C 177.436,116.881 176.153,114.661 176.153,112.838 L 176.149,83.601 C 176.149,81.78 177.433,79.557 179.013,78.647 L 204.329,64.026 C 205.905,63.116 208.474,63.116 210.052,64.026 Z M 206.456,67.538 L 181.09,82.185 C 180.702,82.413 180.46,82.828 180.46,83.276 L 180.46,111.446 C 180.46,112.107 180.957,112.616 181.556,112.696 C 198.027,108.436 197.288,93.053 205.245,87.63 C 213.165,82.237 231.169,84.549 231.502,84.57 C 232.844,84.645 234.111,84.07 234.352,82.828 L 207.716,67.538 C 207.326,67.314 206.85,67.314 206.456,67.538 Z M 203.578,91.567 L 203.532,91.591 C 203.403,91.668 203.323,91.808 203.323,91.958 L 203.323,99.858 C 203.323,100.221 203.751,100.417 204.021,100.18 L 204.311,99.935 C 206.223,98.353 208.289,97.204 210.471,96.423 L 210.732,96.336 C 211.078,96.221 211.125,95.752 210.813,95.567 L 204.007,91.57 C 203.871,91.493 203.712,91.493 203.578,91.567 Z M 213.484,97.662 L 212.231,97.981 C 209.434,98.807 206.933,100.231 204.728,102.275 L 203.78,103.218 C 203.698,103.297 203.655,103.404 203.655,103.516 L 203.598,114.282 C 203.598,114.524 203.798,114.719 204.038,114.707 L 207.735,114.563 C 207.896,114.552 208.028,114.468 208.094,114.327 L 209.019,112.51 L 209.898,111.197 C 210.829,109.971 211.901,108.998 213.127,108.29 C 214.356,107.594 215.735,107.157 217.263,106.977 L 218.842,106.886 L 220.874,107.014 C 221.031,107.024 221.174,106.947 221.263,106.815 L 223.256,103.697 C 223.389,103.498 223.322,103.228 223.112,103.107 L 213.801,97.706 C 213.702,97.651 213.588,97.636 213.484,97.662 Z M 224.879,104.929 L 223.355,107.179 C 223.09,107.539 222.998,107.886 223.111,108.205 L 227.743,116.295 C 227.847,116.54 228.215,116.598 228.535,116.411 L 233.222,113.736 C 233.533,113.559 233.679,113.228 233.537,113.014 L 230.514,107.759 L 225.687,104.602 C 225.451,104.504 225.042,104.698 224.879,104.929 Z M 214.068,109.94 C 212.109,111.052 210.516,112.879 209.361,115.537 C 209.358,115.539 209.353,115.547 209.348,115.565 C 209.251,115.707 209.229,115.868 209.29,115.992 L 213.976,124.208 C 214.078,124.438 214.442,124.481 214.756,124.301 L 226.111,117.804 C 226.422,117.621 226.57,117.289 226.426,117.076 L 221.71,108.882 C 221.638,108.766 221.487,108.704 221.307,108.715 C 221.297,108.715 221.286,108.715 221.277,108.711 C 218.404,108.369 216.021,108.81 214.068,109.94 Z M 206.991,116.549 L 204.277,116.725 C 203.998,116.742 203.621,117.004 203.588,117.261 L 203.862,123.021 L 206.87,128.284 C 206.984,128.513 207.338,128.556 207.652,128.376 L 212.33,125.689 C 212.651,125.503 212.792,125.162 212.633,124.952 L 207.999,116.864 C 207.783,116.599 207.437,116.506 206.991,116.549 Z" fill="#ffffff" stroke="none" stroke-linejoin="miter" stroke-width="0.25" marker-start="none" marker-end="none" stroke-miterlimit="79.8403193612775"/>
   </g>
  </g>
 </g>
</svg>
