<?xml version="1.0" encoding="UTF-8" standalone="no"?>
<!--Generator: Xara Designer (www.xara.com), SVG filter version: 6.3.0.9-->

<svg
   stroke-width="0.501"
   stroke-linejoin="bevel"
   fill-rule="evenodd"
   version="1.1"
   overflow="visible"
   width="66.229004pt"
   height="74.383347pt"
   viewBox="0 0 66.229002 74.383345"
   id="svg149"
   xmlns="http://www.w3.org/2000/svg"
   xmlns:svg="http://www.w3.org/2000/svg">
  <defs
     id="defs139" />
  <g
     id="Document"
     fill="none"
     stroke="#000000"
     font-family="'Times New Roman'"
     font-size="16px"
     transform="matrix(1,0,0,-1,-174.078,-8.5892386)"
     style="fill:#000000;stroke:#000000">
    <g
       id="Spread"
       transform="translate(0,-144)"
       style="fill:#000000;stroke:#000000">
      <g
         id="Layer 1"
         style="font-variant-ligatures:none;fill:#000000;stroke:#000000">
        <path
           d="m 204.149,61.883 -26.902,15.538 c -1.679,0.968 -3.044,3.329 -3.044,5.265 l 0.005,31.069 c 0,1.935 1.364,4.295 3.04,5.265 l 26.902,15.533 c 1.678,0.97 4.408,0.97 6.087,0 l 26.902,-15.535 c 1.68,-0.971 3.043,-3.329 3.043,-5.273 V 82.686 c 0,-1.94 -1.372,-4.306 -3.045,-5.272 L 210.23,61.883 c -1.675,-0.967 -4.407,-0.967 -6.081,0 z m 5.903,2.143 25.319,14.615 c 1.575,0.91 2.864,3.134 2.864,4.959 v 29.23 c 0,1.831 -1.281,4.048 -2.862,4.96 l -25.317,14.62 c -1.579,0.913 -4.147,0.913 -5.725,0 l -25.317,-14.617 c -1.578,-0.912 -2.861,-3.132 -2.861,-4.955 l -0.004,-29.237 c 0,-1.821 1.284,-4.044 2.864,-4.954 l 25.316,-14.621 c 1.576,-0.91 4.145,-0.91 5.723,0 z m -3.596,3.512 -25.366,14.647 c -0.388,0.228 -0.63,0.643 -0.63,1.091 v 28.17 c 0,0.661 0.497,1.17 1.096,1.25 16.471,-4.26 15.732,-19.643 23.689,-25.066 7.92,-5.393 25.924,-3.081 26.257,-3.06 1.342,0.075 2.609,-0.5 2.85,-1.742 l -26.636,-15.29 c -0.39,-0.224 -0.866,-0.224 -1.26,0 z m -2.878,24.029 -0.046,0.024 c -0.129,0.077 -0.209,0.217 -0.209,0.367 v 7.9 c 0,0.363 0.428,0.559 0.698,0.322 l 0.29,-0.245 c 1.912,-1.582 3.978,-2.731 6.16,-3.512 l 0.261,-0.087 c 0.346,-0.115 0.393,-0.584 0.081,-0.769 l -6.806,-3.997 c -0.136,-0.077 -0.295,-0.077 -0.429,-0.003 z m 9.906,6.095 -1.253,0.319 c -2.797,0.826 -5.298,2.25 -7.503,4.294 l -0.948,0.943 c -0.082,0.079 -0.125,0.186 -0.125,0.298 l -0.057,10.766 c 0,0.242 0.2,0.437 0.44,0.425 l 3.697,-0.144 c 0.161,-0.011 0.293,-0.095 0.359,-0.236 l 0.925,-1.817 0.879,-1.313 c 0.931,-1.226 2.003,-2.199 3.229,-2.907 1.229,-0.696 2.608,-1.133 4.136,-1.313 l 1.579,-0.091 2.032,0.128 c 0.157,0.01 0.3,-0.067 0.389,-0.199 l 1.993,-3.118 c 0.133,-0.199 0.066,-0.469 -0.144,-0.59 l -9.311,-5.401 c -0.099,-0.055 -0.213,-0.07 -0.317,-0.044 z m 11.395,7.267 -1.524,2.25 c -0.265,0.36 -0.357,0.707 -0.244,1.026 l 4.632,8.09 c 0.104,0.245 0.472,0.303 0.792,0.116 l 4.687,-2.675 c 0.311,-0.177 0.457,-0.508 0.315,-0.722 l -3.023,-5.255 -4.827,-3.157 c -0.236,-0.098 -0.645,0.096 -0.808,0.327 z m -10.811,5.011 c -1.959,1.112 -3.552,2.939 -4.707,5.597 -0.003,0.002 -0.008,0.01 -0.013,0.028 -0.097,0.142 -0.119,0.303 -0.058,0.427 l 4.686,8.216 c 0.102,0.23 0.466,0.273 0.78,0.093 l 11.355,-6.497 c 0.311,-0.183 0.459,-0.515 0.315,-0.728 l -4.716,-8.194 c -0.072,-0.116 -0.223,-0.178 -0.403,-0.167 -0.01,0 -0.021,0 -0.03,-0.004 -2.873,-0.342 -5.256,0.099 -7.209,1.229 z m -7.077,6.609 -2.714,0.176 c -0.279,0.017 -0.656,0.279 -0.689,0.536 l 0.274,5.76 3.008,5.263 c 0.114,0.229 0.468,0.272 0.782,0.092 l 4.678,-2.687 c 0.321,-0.186 0.462,-0.527 0.303,-0.737 l -4.634,-8.088 c -0.216,-0.265 -0.562,-0.358 -1.008,-0.315 z"
           fill="#ffffff"
           stroke="none"
           stroke-linejoin="miter"
           stroke-width="0.25"
           marker-start="none"
           marker-end="none"
           stroke-miterlimit="79.8403"
           id="path144"
           style="fill:#000000;stroke:#000000" />
      </g>
    </g>
  </g>
</svg>
